Coordinates
version=1
nRows=60
nColumns=12
inDegrees=yes

Units are S.I. units (second, meters, Newtons, ...)
Angles are in degrees

endheader
time	SC_y	SC_z	SC_x	AC_y	AC_z	AC_x	GH_y	GH_z	GH_yy	EL_x	PS_y
       0.0               -44.6         -3.808          36.47           38.2         -2.812          6.298          29.82          34.76          13.64          33.69          14.57
  0.005841               -44.6         -3.805          36.48          38.21         -2.812          6.298          29.83          34.77          13.64           33.7          14.57
   0.01168               -44.6         -3.801          36.48          38.21         -2.812          6.297          29.83          34.77          13.64          33.71          14.58
   0.01752              -44.59         -3.798          36.49          38.21         -2.812          6.296          29.84          34.78          13.65          33.73          14.58
   0.02336              -44.59         -3.794           36.5          38.22         -2.812          6.296          29.85          34.79          13.65          33.74          14.59
   0.02921              -44.58          -3.79           36.5          38.22         -2.812          6.295          29.86          34.79          13.65          33.76          14.59
   0.03505              -44.58         -3.785          36.51          38.23         -2.812          6.294          29.87           34.8          13.65          33.78           14.6
   0.04089              -44.57         -3.781          36.52          38.23         -2.811          6.293          29.88           34.8          13.65           33.8          14.61
   0.04673              -44.56         -3.776          36.53          38.24         -2.811          6.293          29.89          34.81          13.65          33.82          14.61
   0.05257              -44.56          -3.77          36.54          38.24         -2.811          6.292           29.9          34.82          13.65          33.84          14.62
   0.05841              -44.55         -3.765          36.55          38.25         -2.811          6.291          29.92          34.83          13.66          33.86          14.63
   0.06425              -44.54         -3.758          36.56          38.26         -2.811          6.289          29.93          34.84          13.66          33.89          14.64
   0.07009              -44.53         -3.752          36.57          38.26          -2.81          6.288          29.94          34.85          13.66          33.91          14.65
   0.07594              -44.53         -3.744          36.58          38.27          -2.81          6.287          29.96          34.86          13.66          33.94          14.66
   0.08178              -44.52         -3.737          36.59          38.28          -2.81          6.286          29.98          34.87          13.67          33.98          14.67
   0.08762              -44.51         -3.728          36.61          38.29         -2.809          6.284           30.0          34.88          13.67          34.01          14.68
   0.09346              -44.49         -3.719          36.62           38.3         -2.809          6.283          30.02           34.9          13.67          34.05          14.69
    0.0993              -44.48         -3.709          36.64          38.31         -2.809          6.281          30.04          34.91          13.67          34.09          14.71
    0.1051              -44.47         -3.698          36.66          38.32         -2.808          6.279          30.07          34.93          13.68          34.13          14.72
     0.111              -44.45         -3.686          36.68          38.33         -2.808          6.277          30.09          34.94          13.68          34.18          14.74
    0.1168              -44.44         -3.672           36.7          38.35         -2.807          6.274          30.12          34.96          13.69          34.23          14.76
    0.1227              -44.42         -3.658          36.73          38.36         -2.807          6.272          30.15          34.98          13.69          34.29          14.78
    0.1285               -44.4         -3.642          36.75          38.38         -2.806          6.269          30.19          35.01           13.7          34.36           14.8
    0.1343              -44.38         -3.624          36.78           38.4         -2.805          6.266          30.23          35.03           13.7          34.43          14.82
    0.1402              -44.35         -3.604          36.82          38.42         -2.805          6.262          30.27          35.06          13.71          34.51          14.85
     0.146              -44.32         -3.582          36.85          38.45         -2.804          6.258          30.32          35.09          13.72           34.6          14.88
    0.1519              -44.29         -3.557           36.9          38.47         -2.803          6.254          30.38          35.13          13.72           34.7          14.92
    0.1577              -44.26          -3.53          36.94           38.5         -2.802          6.249          30.44          35.17          13.73          34.81          14.96
    0.1636              -44.22         -3.498           37.0          38.54         -2.801          6.244          30.51          35.22          13.74          34.94           15.0
    0.1694              -44.18         -3.462          37.06          38.58         -2.799          6.237          30.59          35.27          13.76          35.09          15.05
    0.1752              -44.13         -3.422          37.13          38.62         -2.798           6.23          30.68          35.33          13.77          35.25           15.1
    0.1811              -44.07         -3.375          37.21          38.67         -2.796          6.222          30.79           35.4          13.78          35.44          15.17
    0.1869               -44.0         -3.321           37.3          38.73         -2.794          6.212          30.91          35.48           13.8          35.66          15.24
    0.1928              -43.92         -3.258           37.4           38.8         -2.791          6.201          31.05          35.57          13.82          35.91          15.33
    0.1986              -43.83         -3.185          37.53          38.88         -2.789          6.188          31.21          35.68          13.85          36.21          15.43
    0.2044              -43.72         -3.098          37.67          38.97         -2.785          6.173          31.41           35.8          13.88          36.56          15.55
    0.2103               -43.6         -2.995          37.85          39.08         -2.781          6.155          31.64          35.95          13.91          36.98           15.7
    0.2161              -43.44         -2.872          38.06          39.21         -2.777          6.133          31.91          36.13          13.95          37.48          15.87
     0.222              -43.26         -2.723          38.31          39.38         -2.771          6.107          32.25          36.35           14.0          38.08          16.07
    0.2278              -43.03         -2.541          38.62          39.57         -2.764          6.075          32.65          36.62          14.06          38.82          16.33
    0.2336              -42.75         -2.316           39.0          39.82         -2.755          6.035          33.16          36.95          14.13          39.73          16.64
    0.2395               -42.4         -2.036          39.47          40.12         -2.745          5.985          33.79          37.35          14.23          40.86          17.03
    0.2453              -41.97         -1.682          40.07           40.5         -2.731          5.923          34.58          37.87          14.34          42.29          17.51
    0.2512              -41.41         -1.233          40.83          40.99         -2.714          5.844          35.58          38.53          14.49          44.11          18.14
     0.257              -40.69        -0.6587           41.8          41.61         -2.692          5.743          36.87          39.37          14.68          46.44          18.93
    0.2629              -39.78        0.07882          43.05          42.41         -2.664          5.612          38.52          40.45          14.92          49.43          19.96
    0.2687              -38.61          1.021          44.64          43.43         -2.628          5.446          40.63          41.82          15.23          53.24          21.26
    0.2745              -37.14          2.205          46.64          44.71         -2.583          5.237          43.28          43.55          15.62          58.04           22.9
    0.2804              -35.35          3.649          49.09          46.27         -2.528          4.982          46.51          45.66           16.1          63.88           24.9
    0.2862              -33.27          5.322          51.92          48.08         -2.464          4.687          50.25          48.11          16.65          70.66          27.22
    0.2921              -31.02          7.134          54.98          50.05         -2.395          4.367          54.31          50.76          17.25           78.0          29.73
    0.2979              -28.77          8.946          58.04          52.01         -2.326          4.048          58.37           53.4          17.84          85.33          32.24
    0.3037              -26.69          10.62          60.87          53.82         -2.262          3.752          62.11          55.85           18.4          92.11          34.56
    0.3096               -24.9          12.06          63.32          55.38         -2.207          3.498          65.34          57.96          18.87          97.96          36.56
    0.3154              -23.43          13.25          65.32          56.66         -2.162          3.289          67.99          59.69          19.26          102.8           38.2
    0.3213              -22.26          14.19          66.91          57.68         -2.126          3.122           70.1          61.07          19.57          106.6          39.51
    0.3271              -21.34          14.93          68.16          58.48         -2.097          2.992          71.75          62.14          19.81          109.6          40.53
     0.333              -20.63           15.5          69.13           59.1         -2.076          2.891          73.04          62.98           20.0          111.9          41.33
    0.3388              -20.07          15.95          69.89          59.59         -2.058          2.812          74.04          63.64          20.15          113.7          41.95
    0.3446              -19.63           16.3          70.49          59.97         -2.045          2.749          74.83          64.16          20.27          115.1          42.44
